<svg xmlns="http://www.w3.org/2000/svg" width="11" height="13" viewBox="0 0 11 12"><path d="M3.93.75v.75h3.14V.75c0-.414.352-.75.785-.75.438 0 .79.336.79.75v.75H9.82c.653 0 1.18.504 1.18 1.125V3.75H0V2.625C0 2.004.527 1.5 1.18 1.5h1.175V.75c0-.414.352-.75.79-.75.433 0 .785.336.785.75zM0 4.5h11v6.375C11 11.496 10.473 12 9.82 12H1.18C.527 12 0 11.496 0 10.875zm1.57 2.625c0 .207.176.375.395.375h.785a.387.387 0 00.395-.375v-.75A.387.387 0 002.75 6h-.785a.385.385 0 00-.395.375zm3.145 0c0 .207.176.375.39.375h.79c.214 0 .39-.168.39-.375v-.75A.384.384 0 005.895 6h-.79a.384.384 0 00-.39.375zM8.25 6a.387.387 0 00-.395.375v.75c0 .207.18.375.395.375h.785a.387.387 0 00.395-.375v-.75A.387.387 0 009.035 6zm-6.68 4.125c0 .207.176.375.395.375h.785a.387.387 0 00.395-.375v-.75A.387.387 0 002.75 9h-.785a.385.385 0 00-.395.375zM5.105 9a.384.384 0 00-.39.375v.75c0 .207.176.375.39.375h.79c.214 0 .39-.168.39-.375v-.75A.384.384 0 005.895 9zm2.75 1.125c0 .207.18.375.395.375h.785a.387.387 0 00.395-.375v-.75A.387.387 0 009.035 9H8.25a.387.387 0 00-.395.375zm0 0" fill="#9a9a9a" id="surface1"/></svg>