<svg xmlns="http://www.w3.org/2000/svg" width="22" height="20"><path id="Forma_1" data-name="Forma 1" d="M1119.81 1325.63h2.34l3.32 12.04a.816.816 0 00.79.59h10.21a.827.827 0 00.75-.48l3.71-8.56a.829.829 0 00-.06-.78.819.819 0 00-.68-.37h-11.29a.82.82 0 000 1.64h10.04l-3.01 6.92h-9.06l-3.33-12.03a.8.8 0 00-.78-.6h-2.95a.815.815 0 000 1.63zm5.67 18.37a1.85 1.85 0 10-1.84-1.85 1.852 1.852 0 001.84 1.85zm11.53 0h.14a1.867 1.867 0 001.71-1.99 1.845 1.845 0 10-1.85 1.99z" transform="translate(-1119 -1324)" fill="#fff" fill-rule="evenodd"/></svg>