<svg xmlns="http://www.w3.org/2000/svg" width="18" height="12.37"><path d="M16.71 12.36H1.29A1.262 1.262 0 010 11.13v-9.9A1.27 1.27 0 011.29-.01h15.42A1.27 1.27 0 0118 1.23v9.9a1.262 1.262 0 01-1.29 1.23zM1.29.82a.417.417 0 00-.43.41v9.9a.423.423 0 00.43.41h15.42a.423.423 0 00.43-.41v-9.9a.417.417 0 00-.43-.41H1.29zM9 6.41a1.319 1.319 0 01-.74-.23L.48.94a.4.4 0 01-.1-.57.428.428 0 01.59-.1l7.78 5.24a.454.454 0 00.5 0L17.03.27a.428.428 0 01.59.1.4.4 0 01-.1.57L9.74 6.18a1.319 1.319 0 01-.74.23zm8.32 5.71a.423.423 0 01-.3-.12L10.4 5.64a.423.423 0 010-.59.448.448 0 01.61 0l6.61 6.37a.394.394 0 010 .58.423.423 0 01-.3.12zm-16.64 0a.423.423 0 01-.3-.12.394.394 0 010-.58l6.61-6.37a.448.448 0 01.61 0 .423.423 0 010 .59L.98 12a.423.423 0 01-.3.12z" fill="#436372" fill-rule="evenodd"/></svg>