<svg id="Группа_1" data-name="Группа 1" xmlns="http://www.w3.org/2000/svg" width="41" height="41"><circle cx="20.5" cy="20.5" r="20.5" fill="#f6f6f6"/><path id="Union_5" data-name="Union 5" d="M1004.59 1961.94a4.322 4.322 0 01-3.43-3.75c-.23-1.45-.25-8.19.17-9.65a4.387 4.387 0 013.75-3.35 34.173 34.173 0 014.31-.19c1.6 0 3.22.04 4.19.1a4.724 4.724 0 013.14 1.28 4.517 4.517 0 011.38 2.94c.12 1.35.21 7.74-.19 9.24a4.411 4.411 0 01-3.8 3.44 42.333 42.333 0 01-4.74.19 29.143 29.143 0 01-4.78-.25zm.92-15.26a2.958 2.958 0 00-2.75 2.59 57.587 57.587 0 00-.06 8.69 2.8 2.8 0 002.12 2.43 27.569 27.569 0 004.63.25c1.8 0 3.57-.06 4.24-.13a2.941 2.941 0 002.75-2.6 61.315 61.315 0 00.11-8.45 2.9 2.9 0 00-2.58-2.74 40.212 40.212 0 00-4.3-.16c-1.71 0-3.41.04-4.16.12zm-.32 6.92a4.445 4.445 0 014.45-4.41 4.37 4.37 0 014.37 4.41 4.458 4.458 0 01-4.45 4.41 4.37 4.37 0 01-4.37-4.41zm1.55-.03a2.834 2.834 0 002.81 2.88h.02a2.882 2.882 0 002.88-2.82 2.82 2.82 0 00-2.8-2.88h-.03a2.881 2.881 0 00-2.88 2.82zm6.45-4.55a1.029 1.029 0 011.03-1.03h.01a1.016 1.016 0 011.02 1.04 1.035 1.035 0 01-1.04 1.02 1.014 1.014 0 01-1.02-1.03z" transform="translate(-989 -1933)" fill="#000" fill-rule="evenodd"/></svg>