<svg id="Группа_4" data-name="Группа 4" xmlns="http://www.w3.org/2000/svg" width="60.32" height="63.94"><circle cx="43.445" cy="46.445" r="16.875" fill="#a3bbc8"/><path d="M1413.15 1277.01a17.9 17.9 0 00-20.89 3.38 18.376 18.376 0 00-1.5 24.05 1.029 1.029 0 00.79.39.981.981 0 00.62-.22 1.011 1.011 0 00.17-1.41 16.324 16.324 0 011.33-21.38 15.907 15.907 0 0118.58-3.01 1 1 0 001.34-.44 1.018 1.018 0 00-.44-1.36zm7.97 8.05a.99.99 0 00-1.34-.44 1.007 1.007 0 00-.44 1.35 16.279 16.279 0 01-2.98 18.75 15.948 15.948 0 01-21.18 1.34.992.992 0 00-1.4.18 1.011 1.011 0 00.17 1.41 17.914 17.914 0 0023.82-1.5 18.316 18.316 0 003.35-21.09zm-2.58-3.84c-.24-.28-.5-.56-.77-.83s-.54-.53-.82-.78a1 1 0 00-1.32 1.51c.25.23.49.46.73.7s.47.49.69.74a.991.991 0 00.74.34 1.05 1.05 0 00.67-.25 1.021 1.021 0 00.08-1.43zm10.04 13.86a3.439 3.439 0 000-3.58l-1.31-2.17a1.412 1.412 0 01-.19-.96l.39-2.51a3.427 3.427 0 00-1.36-3.31l-2.03-1.5a1.384 1.384 0 01-.54-.81l-.6-2.47a3.391 3.391 0 00-2.5-2.53l-2.45-.6a1.448 1.448 0 01-.81-.54l-1.48-2.06a3.365 3.365 0 00-3.28-1.37l-2.48.39a1.374 1.374 0 01-.95-.19l-2.16-1.32a3.326 3.326 0 00-3.54 0l-2.15 1.32a1.384 1.384 0 01-.95.19l-2.49-.39a3.373 3.373 0 00-3.28 1.37l-1.48 2.05a1.393 1.393 0 01-.8.55l-2.45.6a3.388 3.388 0 00-2.51 2.53l-.59 2.47a1.415 1.415 0 01-.54.81l-2.04 1.5a3.427 3.427 0 00-1.36 3.31l.39 2.51a1.406 1.406 0 01-.18.96l-1.32 2.17a3.484 3.484 0 000 3.58l1.32 2.17a1.406 1.406 0 01.18.96l-.39 2.51a3.427 3.427 0 001.36 3.31l2.04 1.5a1.384 1.384 0 01.54.81l.59 2.47a3.391 3.391 0 002.5 2.53l1.03.25-6.93 15.59a1.043 1.043 0 00.11 1.01.981.981 0 00.92.4l5.57-.67 3.21 4.65a1.01 1.01 0 00.82.43h.1a.994.994 0 00.81-.6l7.08-15.92.89.55a3.326 3.326 0 003.54 0l.93-.57 7.08 15.94a1.009 1.009 0 00.82.6h.09a1 1 0 00.82-.43l3.21-4.65 5.57.68a1.015 1.015 0 001.03-1.42l-6.93-15.6.99-.24a3.391 3.391 0 002.5-2.53l.6-2.47a1.384 1.384 0 01.54-.81l2.03-1.5a3.427 3.427 0 001.36-3.31l-.39-2.51a1.412 1.412 0 01.19-.96zm-34.36 34.88l-2.54-3.69a.99.99 0 00-.94-.42l-4.41.53 6.31-14.2a1.421 1.421 0 01.3.3l1.48 2.06a3.958 3.958 0 00.47.53l-3.32 7.48a1.005 1.005 0 00.91 1.42 1 1 0 00.91-.6l3.31-7.45a3.725 3.725 0 001-.01l2.49-.39a1.086 1.086 0 01.44 0zm29.62-3.58l-4.42-.53a.983.983 0 00-.93.42l-2.55 3.69-6.41-14.45a1.136 1.136 0 01.41.01l2.48.39a3.3 3.3 0 001.04 0l3.31 7.46a1.012 1.012 0 00.91.6.978.978 0 00.41-.09 1.011 1.011 0 00.5-1.33l-3.33-7.51a3.5 3.5 0 00.44-.5l1.48-2.06a1.518 1.518 0 01.34-.33zm3.04-32.35l-1.32 2.17a3.435 3.435 0 00-.45 2.32l.39 2.51a1.419 1.419 0 01-.56 1.37l-2.04 1.5a3.4 3.4 0 00-1.3 1.96l-.6 2.48a1.383 1.383 0 01-1.03 1.04l-2.45.6a3.357 3.357 0 00-1.95 1.32l-1.48 2.05a1.39 1.39 0 01-1.36.57l-2.48-.4a3.42 3.42 0 00-2.3.46l-2.16 1.33a1.374 1.374 0 01-1.46 0l-2.15-1.33a3.4 3.4 0 00-1.78-.5 4.55 4.55 0 00-.52.04l-2.49.4a1.382 1.382 0 01-1.35-.57l-1.49-2.05a3.357 3.357 0 00-1.95-1.32l-2.45-.6a1.383 1.383 0 01-1.03-1.04l-.59-2.48a3.412 3.412 0 00-1.31-1.96l-2.03-1.5a1.426 1.426 0 01-.57-1.37l.4-2.51a3.5 3.5 0 00-.46-2.32l-1.31-2.17a1.409 1.409 0 010-1.48l1.31-2.17a3.5 3.5 0 00.46-2.32l-.39-2.52a1.391 1.391 0 01.56-1.36l2.03-1.5a3.467 3.467 0 001.31-1.97l.59-2.47a1.383 1.383 0 011.03-1.04l2.45-.6a3.412 3.412 0 001.96-1.32l1.48-2.05a1.382 1.382 0 011.35-.57l2.49.39a3.331 3.331 0 002.3-.46l2.15-1.32a1.374 1.374 0 011.46 0l2.16 1.32a3.31 3.31 0 002.3.46l2.48-.39a1.39 1.39 0 011.36.57l1.48 2.05a3.389 3.389 0 001.95 1.32l2.45.6a1.383 1.383 0 011.03 1.04l.6 2.47a3.42 3.42 0 001.3 1.97l2.04 1.5a1.411 1.411 0 01.56 1.36l-.39 2.52a3.435 3.435 0 00.45 2.32l1.32 2.17a1.453 1.453 0 010 1.48zm-10.13-3.88a1.788 1.788 0 00-1.51-1.24l-6.01-.72-2.53-5.55a1.8 1.8 0 00-3.28 0l-2.53 5.55-6.01.72a1.775 1.775 0 00-1.5 1.24 1.818 1.818 0 00.49 1.9l4.44 4.15-1.18 5.99a1.819 1.819 0 001.77 2.18 1.767 1.767 0 00.88-.24l5.28-2.98 5.28 2.98a1.757 1.757 0 001.94-.11 1.807 1.807 0 00.71-1.83l-1.18-5.99 4.44-4.15a1.8 1.8 0 00.5-1.9zm-6.7 4.95a1.006 1.006 0 00-.3.94l1.2 6.13-5.4-3.05a.947.947 0 00-.49-.13.973.973 0 00-.49.13l-5.4 3.05 1.21-6.13a1.031 1.031 0 00-.3-.94l-4.55-4.24 6.15-.74a1.01 1.01 0 00.79-.58l2.59-5.67 2.59 5.67a1.01 1.01 0 00.79.58l6.15.74z" transform="translate(-1381.06 -1269.06)" fill="#243f4d" fill-rule="evenodd"/></svg>