<svg id="Группа_1" data-name="Группа 1" xmlns="http://www.w3.org/2000/svg" width="73.375" height="59.38"><circle cx="56.5" cy="42.505" r="16.875" fill="#a3bbc8"/><path d="M530.635 1273h-57.27a3.368 3.368 0 00-3.365 3.36v41.14a3.368 3.368 0 003.365 3.36h21.691l-.877 7h-3.633a1.07 1.07 0 100 2.14h22.908a1.07 1.07 0 100-2.14h-3.634l-.877-7h21.692a3.368 3.368 0 003.365-3.36v-41.14a3.368 3.368 0 00-3.365-3.36zm-34.291 54.86l.877-7h9.558l.877 7h-11.312zm35.508-10.36a1.213 1.213 0 01-1.217 1.21h-57.27a1.212 1.212 0 01-1.217-1.21v-41.14a1.221 1.221 0 011.217-1.22h57.27a1.222 1.222 0 011.217 1.22v41.14zm-11.525-39.93h-44.672a1.072 1.072 0 00-1.073 1.07v35.43a1.072 1.072 0 001.073 1.07h3.437a1.07 1.07 0 100-2.14h-2.363v-33.29h43.6a1.07 1.07 0 10-.002-2.14zm8.017 0h-3.436a1.07 1.07 0 100 2.14h2.363V1313h-43.6a1.07 1.07 0 100 2.14h44.671a1.073 1.073 0 001.074-1.07v-35.43a1.073 1.073 0 00-1.072-1.07zm-6.872 5.72a3.352 3.352 0 00-2.97 4.93l-8.6 9.09a3.322 3.322 0 00-1.408-.31 3.361 3.361 0 00-2.314.92l-7.348-3.88a3.364 3.364 0 10-6.684-.54 3.352 3.352 0 00.328 1.45l-8.406 8.14a3.331 3.331 0 00-1.539-.38 3.36 3.36 0 103.036 1.91l8.406-8.14a3.328 3.328 0 003.852-.55l7.348 3.88a3.54 3.54 0 00-.044.55 3.365 3.365 0 106.334-1.58l8.6-9.09a3.316 3.316 0 001.408.31 3.355 3.355 0 10.001-6.71zm-38.944 24a1.215 1.215 0 111.217-1.22 1.222 1.222 0 01-1.217 1.22zm12.981-12.58a1.21 1.21 0 111.217-1.21 1.213 1.213 0 01-1.217 1.21zm12.982 6.86a1.215 1.215 0 111.217-1.21 1.212 1.212 0 01-1.217 1.21zm12.981-13.71a1.215 1.215 0 111.217-1.22 1.222 1.222 0 01-1.217 1.22zm0 4.57a1.073 1.073 0 00-1.074 1.07v16a1.074 1.074 0 002.148 0v-16a1.073 1.073 0 00-1.074-1.07zm-25.963 6.86a1.066 1.066 0 00-1.074 1.07v9.14a1.074 1.074 0 002.148 0v-9.14a1.066 1.066 0 00-1.074-1.07zm12.982 6.85a1.073 1.073 0 00-1.074 1.07v2.29a1.074 1.074 0 002.147 0v-2.29a1.072 1.072 0 00-1.073-1.07z" transform="translate(-470 -1273)" fill="#243f4d" fill-rule="evenodd"/></svg>